<svg xmlns="http://www.w3.org/2000/svg" width="23" height="22.984" viewBox="0 0 23 22.984">
  <g id="Component_1_1" data-name="Component 1 – 1" transform="translate(0.5 0.484)">
    <g id="Group_16095" data-name="Group 16095" transform="translate(0 5)">
      <path id="Path_20186" data-name="Path 20186" d="M19.25,0H2.75A2.907,2.907,0,0,0,0,2.742V14.469A2.535,2.535,0,0,0,2.539,17H19.461A2.535,2.535,0,0,0,22,14.469V2.657A2.835,2.835,0,0,0,19.25,0Z" fill="none" stroke="#949494" stroke-linecap="round" stroke-linejoin="round" stroke-width="1"/>
    </g>
    <g id="Group_16096" data-name="Group 16096">
      <path id="Path_20187" data-name="Path 20187" d="M17,3.82V1.989C17,.164,16.618-.362,14.422.235,12.809.674,3.372,3.372,3.372,3.372.465,4.5.022,5.464.022,7.655L0,9" fill="none" stroke="#949494" stroke-linejoin="round" stroke-width="1"/>
    </g>
  </g>
</svg>
